<mxfile host="app.diagrams.net" modified="2024-06-19T02:21:42.335Z" agent="Mozilla/5.0 (Macintosh; Intel Mac OS X 10_15_7) AppleWebKit/537.36 (KHTML, like Gecko) Chrome/125.0.0.0 Safari/537.36" etag="smA2SFFH3di9LFRyNlsC" version="24.0.0" type="github">
  <diagram name="第 1 页" id="07W9A3TnZ390RYdhMtKC">
    <mxGraphModel dx="1338" dy="723" grid="1" gridSize="10" guides="1" tooltips="1" connect="1" arrows="1" fold="1" page="1" pageScale="1" pageWidth="827" pageHeight="1169" math="0" shadow="0">
      <root>
        <mxCell id="0" />
        <mxCell id="1" parent="0" />
        <mxCell id="pg5-r8UXQFeS9_TsiqdO-1" value="GCDWebServer" style="swimlane;fontStyle=1;align=center;verticalAlign=top;childLayout=stackLayout;horizontal=1;startSize=26;horizontalStack=0;resizeParent=1;resizeParentMax=0;resizeLast=0;collapsible=1;marginBottom=0;whiteSpace=wrap;html=1;" vertex="1" parent="1">
          <mxGeometry x="190" y="550" width="290" height="294" as="geometry" />
        </mxCell>
        <mxCell id="pg5-r8UXQFeS9_TsiqdO-2" value="- delegate" style="text;strokeColor=none;fillColor=none;align=left;verticalAlign=top;spacingLeft=4;spacingRight=4;overflow=hidden;rotatable=0;points=[[0,0.5],[1,0.5]];portConstraint=eastwest;whiteSpace=wrap;html=1;" vertex="1" parent="pg5-r8UXQFeS9_TsiqdO-1">
          <mxGeometry y="26" width="290" height="26" as="geometry" />
        </mxCell>
        <mxCell id="pg5-r8UXQFeS9_TsiqdO-14" value="- running" style="text;strokeColor=none;fillColor=none;align=left;verticalAlign=top;spacingLeft=4;spacingRight=4;overflow=hidden;rotatable=0;points=[[0,0.5],[1,0.5]];portConstraint=eastwest;whiteSpace=wrap;html=1;" vertex="1" parent="pg5-r8UXQFeS9_TsiqdO-1">
          <mxGeometry y="52" width="290" height="26" as="geometry" />
        </mxCell>
        <mxCell id="pg5-r8UXQFeS9_TsiqdO-15" value="- port" style="text;strokeColor=none;fillColor=none;align=left;verticalAlign=top;spacingLeft=4;spacingRight=4;overflow=hidden;rotatable=0;points=[[0,0.5],[1,0.5]];portConstraint=eastwest;whiteSpace=wrap;html=1;" vertex="1" parent="pg5-r8UXQFeS9_TsiqdO-1">
          <mxGeometry y="78" width="290" height="26" as="geometry" />
        </mxCell>
        <mxCell id="pg5-r8UXQFeS9_TsiqdO-16" value="- bonjourName" style="text;strokeColor=none;fillColor=none;align=left;verticalAlign=top;spacingLeft=4;spacingRight=4;overflow=hidden;rotatable=0;points=[[0,0.5],[1,0.5]];portConstraint=eastwest;whiteSpace=wrap;html=1;" vertex="1" parent="pg5-r8UXQFeS9_TsiqdO-1">
          <mxGeometry y="104" width="290" height="26" as="geometry" />
        </mxCell>
        <mxCell id="pg5-r8UXQFeS9_TsiqdO-17" value="- bonjourType" style="text;strokeColor=none;fillColor=none;align=left;verticalAlign=top;spacingLeft=4;spacingRight=4;overflow=hidden;rotatable=0;points=[[0,0.5],[1,0.5]];portConstraint=eastwest;whiteSpace=wrap;html=1;" vertex="1" parent="pg5-r8UXQFeS9_TsiqdO-1">
          <mxGeometry y="130" width="290" height="26" as="geometry" />
        </mxCell>
        <mxCell id="pg5-r8UXQFeS9_TsiqdO-3" value="" style="line;strokeWidth=1;fillColor=none;align=left;verticalAlign=middle;spacingTop=-1;spacingLeft=3;spacingRight=3;rotatable=0;labelPosition=right;points=[];portConstraint=eastwest;strokeColor=inherit;" vertex="1" parent="pg5-r8UXQFeS9_TsiqdO-1">
          <mxGeometry y="156" width="290" height="8" as="geometry" />
        </mxCell>
        <mxCell id="pg5-r8UXQFeS9_TsiqdO-4" value="- addHandlerWithMatchBlock:processBlock:" style="text;strokeColor=none;fillColor=none;align=left;verticalAlign=top;spacingLeft=4;spacingRight=4;overflow=hidden;rotatable=0;points=[[0,0.5],[1,0.5]];portConstraint=eastwest;whiteSpace=wrap;html=1;" vertex="1" parent="pg5-r8UXQFeS9_TsiqdO-1">
          <mxGeometry y="164" width="290" height="26" as="geometry" />
        </mxCell>
        <mxCell id="pg5-r8UXQFeS9_TsiqdO-18" value="- addHandlerWithMatchBlock:asyncProcessBlock:" style="text;strokeColor=none;fillColor=none;align=left;verticalAlign=top;spacingLeft=4;spacingRight=4;overflow=hidden;rotatable=0;points=[[0,0.5],[1,0.5]];portConstraint=eastwest;whiteSpace=wrap;html=1;" vertex="1" parent="pg5-r8UXQFeS9_TsiqdO-1">
          <mxGeometry y="190" width="290" height="26" as="geometry" />
        </mxCell>
        <mxCell id="pg5-r8UXQFeS9_TsiqdO-19" value="-&lt;span style=&quot;background-color: initial;&quot;&gt;&amp;nbsp;removeAllHandlers&lt;/span&gt;" style="text;strokeColor=none;fillColor=none;align=left;verticalAlign=top;spacingLeft=4;spacingRight=4;overflow=hidden;rotatable=0;points=[[0,0.5],[1,0.5]];portConstraint=eastwest;whiteSpace=wrap;html=1;" vertex="1" parent="pg5-r8UXQFeS9_TsiqdO-1">
          <mxGeometry y="216" width="290" height="26" as="geometry" />
        </mxCell>
        <mxCell id="pg5-r8UXQFeS9_TsiqdO-20" value="- startWithOptions:error:" style="text;strokeColor=none;fillColor=none;align=left;verticalAlign=top;spacingLeft=4;spacingRight=4;overflow=hidden;rotatable=0;points=[[0,0.5],[1,0.5]];portConstraint=eastwest;whiteSpace=wrap;html=1;" vertex="1" parent="pg5-r8UXQFeS9_TsiqdO-1">
          <mxGeometry y="242" width="290" height="26" as="geometry" />
        </mxCell>
        <mxCell id="pg5-r8UXQFeS9_TsiqdO-21" value="- stop" style="text;strokeColor=none;fillColor=none;align=left;verticalAlign=top;spacingLeft=4;spacingRight=4;overflow=hidden;rotatable=0;points=[[0,0.5],[1,0.5]];portConstraint=eastwest;whiteSpace=wrap;html=1;" vertex="1" parent="pg5-r8UXQFeS9_TsiqdO-1">
          <mxGeometry y="268" width="290" height="26" as="geometry" />
        </mxCell>
        <mxCell id="pg5-r8UXQFeS9_TsiqdO-5" value="GCDWebServerDelegate&lt;div&gt;&amp;lt;protocol&amp;gt;&lt;/div&gt;" style="swimlane;fontStyle=1;align=center;verticalAlign=top;childLayout=stackLayout;horizontal=1;startSize=40;horizontalStack=0;resizeParent=1;resizeParentMax=0;resizeLast=0;collapsible=1;marginBottom=0;whiteSpace=wrap;html=1;" vertex="1" parent="1">
          <mxGeometry x="550" y="300" width="270" height="196" as="geometry" />
        </mxCell>
        <mxCell id="pg5-r8UXQFeS9_TsiqdO-8" value="- webServerDidStart:" style="text;strokeColor=none;fillColor=none;align=left;verticalAlign=top;spacingLeft=4;spacingRight=4;overflow=hidden;rotatable=0;points=[[0,0.5],[1,0.5]];portConstraint=eastwest;whiteSpace=wrap;html=1;" vertex="1" parent="pg5-r8UXQFeS9_TsiqdO-5">
          <mxGeometry y="40" width="270" height="26" as="geometry" />
        </mxCell>
        <mxCell id="pg5-r8UXQFeS9_TsiqdO-9" value="- webServerDidCompleteBonjourRegistration:" style="text;strokeColor=none;fillColor=none;align=left;verticalAlign=top;spacingLeft=4;spacingRight=4;overflow=hidden;rotatable=0;points=[[0,0.5],[1,0.5]];portConstraint=eastwest;whiteSpace=wrap;html=1;" vertex="1" parent="pg5-r8UXQFeS9_TsiqdO-5">
          <mxGeometry y="66" width="270" height="26" as="geometry" />
        </mxCell>
        <mxCell id="pg5-r8UXQFeS9_TsiqdO-10" value="- webServerDidUpdateNATPortMapping:" style="text;strokeColor=none;fillColor=none;align=left;verticalAlign=top;spacingLeft=4;spacingRight=4;overflow=hidden;rotatable=0;points=[[0,0.5],[1,0.5]];portConstraint=eastwest;whiteSpace=wrap;html=1;" vertex="1" parent="pg5-r8UXQFeS9_TsiqdO-5">
          <mxGeometry y="92" width="270" height="26" as="geometry" />
        </mxCell>
        <mxCell id="pg5-r8UXQFeS9_TsiqdO-11" value="- webServerDidConnect:" style="text;strokeColor=none;fillColor=none;align=left;verticalAlign=top;spacingLeft=4;spacingRight=4;overflow=hidden;rotatable=0;points=[[0,0.5],[1,0.5]];portConstraint=eastwest;whiteSpace=wrap;html=1;" vertex="1" parent="pg5-r8UXQFeS9_TsiqdO-5">
          <mxGeometry y="118" width="270" height="26" as="geometry" />
        </mxCell>
        <mxCell id="pg5-r8UXQFeS9_TsiqdO-12" value="- webServerDidDisconnect:" style="text;strokeColor=none;fillColor=none;align=left;verticalAlign=top;spacingLeft=4;spacingRight=4;overflow=hidden;rotatable=0;points=[[0,0.5],[1,0.5]];portConstraint=eastwest;whiteSpace=wrap;html=1;" vertex="1" parent="pg5-r8UXQFeS9_TsiqdO-5">
          <mxGeometry y="144" width="270" height="26" as="geometry" />
        </mxCell>
        <mxCell id="pg5-r8UXQFeS9_TsiqdO-13" value="- webServerDidStop:" style="text;strokeColor=none;fillColor=none;align=left;verticalAlign=top;spacingLeft=4;spacingRight=4;overflow=hidden;rotatable=0;points=[[0,0.5],[1,0.5]];portConstraint=eastwest;whiteSpace=wrap;html=1;" vertex="1" parent="pg5-r8UXQFeS9_TsiqdO-5">
          <mxGeometry y="170" width="270" height="26" as="geometry" />
        </mxCell>
      </root>
    </mxGraphModel>
  </diagram>
</mxfile>
